<svg xmlns="http://www.w3.org/2000/svg" viewBox="0 0 512.001 512.001"><path d="M8.828 423.725h494.345a8.829 8.829 0 0 0 8.828-8.828V97.104a8.829 8.829 0 0 0-8.828-8.828H8.828A8.83 8.83 0 0 0 0 97.104v317.793a8.828 8.828 0 0 0 8.828 8.828z" fill="#C8414B"/><path fill="#FFD250" d="M0 158.901H512V353.111H0z"/><path d="M216.276 256.001l7.485-33.681c.69-3.102-1.671-6.044-4.849-6.044h-5.272c-3.177 0-5.537 2.942-4.849 6.044l7.485 33.681z" fill="#C8414B"/><path fill="#F5F5F5" d="M207.45 238.341H225.105V313.371H207.45z"/><path fill="#FAB446" d="M203.03 229.521H229.513V238.349H203.03z"/><path fill="#C8414B" d="M185.38 256.001H229.51999999999998V264.82899999999995H185.38z"/><path fill="#C8414B" d="M229.517 291.311L203.034 282.484 203.034 273.656 229.517 282.484z"/><path d="M83.862 256.001l7.485-33.681c.69-3.102-1.671-6.044-4.849-6.044h-5.272c-3.177 0-5.537 2.942-4.849 6.044l7.485 33.681z" fill="#C8414B"/><path d="M114.759 229.518a8.829 8.829 0 0 0-8.828 8.828v57.379c0 10.725 10.01 30.897 44.138 30.897s44.138-20.171 44.138-30.897v-57.379a8.829 8.829 0 0 0-8.828-8.828h-70.62z" fill="#F5F5F5"/><path d="M150.069 273.656h-44.138v-35.31a8.829 8.829 0 0 1 8.828-8.828h35.31v44.138zm0 0h44.138v22.069c0 12.189-9.88 22.069-22.069 22.069-12.189 0-22.069-9.88-22.069-22.069v-22.069z" fill="#C8414B"/><path d="M105.931 273.656h44.138v22.069c0 12.189-9.88 22.069-22.069 22.069-12.189 0-22.069-9.88-22.069-22.069v-22.069z" fill="#FAB446"/><path d="M141.241 313.281v-39.625h-8.828v43.693c3.284-.666 6.251-2.12 8.828-4.068zm-17.655 4.068v-43.693h-8.828v39.625c2.578 1.948 5.545 3.402 8.828 4.068z" fill="#C8414B"/><path fill="#FFB441" d="M114.76 256.001H141.243V264.82899999999995H114.76z"/><path fill="#FAB446" d="M114.76 238.341H141.243V247.169H114.76z"/><path fill="#FAB446" d="M119.17 243.591H136.825V259.583H119.17z"/><path fill="#F5F5F5" d="M75.03 238.341H92.685V313.371H75.03z"/><path fill="#FAB446" d="M70.62 308.971H97.10300000000001V317.799H70.62z"/><path fill="#FAB446" d="M70.62 229.521H97.10300000000001V238.349H70.62z"/><path fill="#5064AA" d="M66.21 317.791H101.52V326.61899999999997H66.21z"/><path fill="#FAB446" d="M207.45 308.971H233.933V317.799H207.45z"/><path fill="#5064AA" d="M198.62 317.791H233.93V326.61899999999997H198.62z"/><path fill="#FAB446" d="M123.59 220.691H176.556V229.519H123.59z"/><path fill="#FFB441" d="M145.66 194.211H154.488V220.69400000000002H145.66z"/><path d="M141.241 207.449c-7.302 0-13.241-5.94-13.241-13.241 0-7.302 5.94-13.241 13.241-13.241 7.302 0 13.241 5.94 13.241 13.241.001 7.301-5.939 13.241-13.241 13.241zm0-17.655a4.417 4.417 0 0 0-4.414 4.414c0 2.435 1.978 4.414 4.414 4.414s4.414-1.978 4.414-4.414a4.417 4.417 0 0 0-4.414-4.414z" fill="#F5F5F5"/><path d="M158.897 207.449c-7.302 0-13.241-5.94-13.241-13.241 0-7.302 5.94-13.241 13.241-13.241 7.302 0 13.241 5.94 13.241 13.241s-5.94 13.241-13.241 13.241zm0-17.655a4.417 4.417 0 0 0-4.414 4.414 4.417 4.417 0 0 0 4.414 4.414 4.417 4.417 0 0 0 4.414-4.414 4.418 4.418 0 0 0-4.414-4.414z" fill="#F5F5F5"/><path d="M176.552 216.277c-7.302 0-13.241-5.94-13.241-13.241 0-7.302 5.94-13.241 13.241-13.241 7.302 0 13.241 5.94 13.241 13.241s-5.94 13.241-13.241 13.241zm0-17.655a4.417 4.417 0 0 0-4.414 4.414 4.417 4.417 0 0 0 4.414 4.414c2.435 0 4.414-1.978 4.414-4.414s-1.979-4.414-4.414-4.414zm-52.966 17.655c-7.302 0-13.241-5.94-13.241-13.241 0-7.302 5.94-13.241 13.241-13.241 7.302 0 13.241 5.94 13.241 13.241.001 7.301-5.939 13.241-13.241 13.241zm0-17.655a4.417 4.417 0 0 0-4.414 4.414c0 2.435 1.978 4.414 4.414 4.414s4.414-1.979 4.414-4.415a4.416 4.416 0 0 0-4.414-4.413z" fill="#F5F5F5"/><path d="M176.552 291.311v4.414c0 2.434-1.98 4.414-4.414 4.414s-4.414-1.98-4.414-4.414v-4.414h8.828m8.827-8.827h-26.483v13.241c0 7.302 5.94 13.241 13.241 13.241 7.302 0 13.241-5.94 13.241-13.241v-13.241h.001z" fill="#FAB446"/><path d="M172.138 264.829a8.829 8.829 0 0 1-8.828-8.828v-8.828a8.829 8.829 0 0 1 17.656 0v8.828a8.829 8.829 0 0 1-8.828 8.828z" fill="#FFA0D2"/><circle cx="150.07" cy="273.651" r="13.241" fill="#5064AA"/><path fill="#FAB446" d="M145.66 176.551H154.488V203.034H145.66z"/><path d="M123.586 220.691l-8.828-8.828 5.171-5.171a42.627 42.627 0 0 1 60.28 0l5.171 5.171-8.828 8.828h-52.966z" fill="#C8414B"/><g fill="#FFD250"><circle cx="150.07" cy="211.861" r="4.414"/><circle cx="132.41" cy="211.861" r="4.414"/><circle cx="167.72" cy="211.861" r="4.414"/></g><g fill="#C8414B"><path d="M70.62 256.001H114.76V264.82899999999995H70.62z"/><path d="M70.621 291.311L97.103 282.484 97.103 273.656 70.621 282.484z"/></g></svg>